<svg width="12" height="12" viewBox="0 0 12 12" fill="none" xmlns="http://www.w3.org/2000/svg">
<g clip-path="url(#clip0_480_162)">
<path d="M10.21 2.28998C9.9592 2.03827 9.66114 1.83855 9.33295 1.70227C9.00476 1.566 8.6529 1.49585 8.29754 1.49585C7.94219 1.49585 7.59032 1.566 7.26213 1.70227C6.93394 1.83855 6.63588 2.03827 6.38504 2.28998L6.00004 2.67998L5.61504 2.28998C5.3642 2.03827 5.06614 1.83855 4.73795 1.70227C4.40976 1.566 4.0579 1.49585 3.70254 1.49585C3.34719 1.49585 2.99532 1.566 2.66713 1.70227C2.33894 1.83855 2.04088 2.03827 1.79004 2.28998C0.730043 3.34998 0.665043 5.13998 2.00004 6.49998L6.00004 10.5L10 6.49998C11.335 5.13998 11.27 3.34998 10.21 2.28998Z" fill="#0F172A" stroke="#0F172A" stroke-width="1.5" stroke-linecap="round" stroke-linejoin="round"/>
</g>
<defs>
<clipPath id="clip0_480_162">
<rect width="12" height="12" fill="white"/>
</clipPath>
</defs>
</svg>
